<?xml version="1.0" encoding="UTF-8"?>
<svg id="Layer_1" xmlns="http://www.w3.org/2000/svg" version="1.1" viewBox="0 0 224.7 224.7">
  <!-- Generator: Adobe Illustrator 29.2.1, SVG Export Plug-In . SVG Version: 2.1.0 Build 116)  -->
  <defs>
    <style>
      .st0 {
        fill: #fff;
      }
    </style>
  </defs>
  <path d="M224.7,112.35c0,62.05-50.3,112.35-112.35,112.35S0,174.4,0,112.35,50.3,0,112.35,0s112.35,50.3,112.35,112.35"/>
  <path class="st0" d="M104.42,112.35c0,7.3-5.92,13.22-13.22,13.22s-13.22-5.92-13.22-13.22,5.92-13.22,13.22-13.22,13.22,5.92,13.22,13.22"/>
  <path class="st0" d="M146.72,112.35c0,7.3-5.92,13.22-13.22,13.22s-13.22-5.92-13.22-13.22,5.92-13.22,13.22-13.22,13.22,5.92,13.22,13.22"/>
  <polygon class="st0" points="190.9 63.45 160.48 161.26 124.79 161.26 127.94 150.68 152.71 150.68 176.55 74.02 150.62 74.02 153.76 63.45 190.9 63.45"/>
  <polygon class="st0" points="72 74.02 48.15 150.68 76.73 150.68 73.58 161.26 33.8 161.26 64.2 63.45 102.58 63.45 99.44 74.02 72 74.02"/>
</svg>